HIERARCHY
ROOT Hips
{
  OFFSET -35.4901 99.2528 17.4586
  CHANNELS 6 Xposition Yposition Zposition Zrotation Xrotation Yrotation
  JOINT LeftUpLeg
  {
    OFFSET 8.64259 1.95398 -2.38835
    CHANNELS 3 Zrotation Xrotation Yrotation
    JOINT LeftLeg
    {
      OFFSET 43.7702 0 0
      CHANNELS 3 Zrotation Xrotation Yrotation
      JOINT LeftFoot
      {
        OFFSET 40.6238 0 0
        CHANNELS 3 Zrotation Xrotation Yrotation
        JOINT LeftToeBase
        {
          OFFSET 12.7242 0 0
          CHANNELS 3 Zrotation Xrotation Yrotation
          End Site
          {
            OFFSET 0 0 0
          }
        }
      }
    }
  }
  JOINT RightUpLeg
  {
    OFFSET -8.2249 1.95398 -2.59336
    CHANNELS 3 Zrotation Xrotation Yrotation
    JOINT RightLeg
    {
      OFFSET 43.5653 0 0
      CHANNELS 3 Zrotation Xrotation Yrotation
      JOINT RightFoot
      {
        OFFSET 40.6238 0 0
        CHANNELS 3 Zrotation Xrotation Yrotation
        JOINT RightToeBase
        {
          OFFSET 12.7242 0 0
          CHANNELS 3 Zrotation Xrotation Yrotation
          End Site
          {
            OFFSET 0 0 0
          }
        }
      }
    }
  }
  JOINT Spine
  {
    OFFSET 0.165834 0.87714 6.61349
    CHANNELS 3 Zrotation Xrotation Yrotation
    JOINT Spine1
    {
      OFFSET 7.38963 1.71661e-005 0
      CHANNELS 3 Zrotation Xrotation Yrotation
      JOINT Spine2
      {
        OFFSET 11.9445 1.14441e-005 0
        CHANNELS 3 Zrotation Xrotation Yrotation
        JOINT Spine3
        {
          OFFSET 14.7254 4.19617e-005 0
          CHANNELS 3 Zrotation Xrotation Yrotation
          JOINT Spine4
          {
            OFFSET 10.9679 0 0
            CHANNELS 3 Zrotation Xrotation Yrotation
            JOINT RightShoulder
            {
              OFFSET 2.46616 -1.6653 3.69651
              CHANNELS 3 Zrotation Xrotation Yrotation
              JOINT RightArm
              {
                OFFSET 13.0012 0 0
                CHANNELS 3 Zrotation Xrotation Yrotation
                JOINT RightForeArm
                {
                  OFFSET 28.7848 1.52588e-005 0
                  CHANNELS 3 Zrotation Xrotation Yrotation
                  JOINT RightHand
                  {
                    OFFSET 26.5688 1.52588e-005 0
                    CHANNELS 3 Zrotation Xrotation Yrotation
                    End Site
                    {
                      OFFSET 0 0 0
                    }
                  }
                }
              }
            }
            JOINT LeftShoulder
            {
              OFFSET 2.38034 -1.29275 -3.7523
              CHANNELS 3 Zrotation Xrotation Yrotation
              JOINT LeftArm
              {
                OFFSET 16.3182 6.10351e-005 0
                CHANNELS 3 Zrotation Xrotation Yrotation
                JOINT LeftForeArm
                {
                  OFFSET 27.0901 0 0
                  CHANNELS 3 Zrotation Xrotation Yrotation
                  JOINT LeftHand
                  {
                    OFFSET 24.5451 1.52588e-005 0
                    CHANNELS 3 Zrotation Xrotation Yrotation
                    End Site
                    {
                      OFFSET 0 0 0
                    }
                  }
                }
              }
            }
            JOINT Neck
            {
              OFFSET 5.0226 -0.0266342 0
              CHANNELS 3 Zrotation Xrotation Yrotation
              JOINT Head
              {
                OFFSET 6.69364 2.86102e-005 0
                CHANNELS 3 Zrotation Xrotation Yrotation
                End Site
                {
                  OFFSET 0 0 0
                }
              }
            }
          }
        }
      }
    }
  }
}
MOTION
Frames:	12
Frame Time:	0.0416667
14.8411 99.7766 16.2495 172.918 -81.0931 171.661 -176.509 -4.94196 90.9734 -12.1507 9.43034 0.385906 70.8789 5.22507 -3.11062 17.2544 -3.27245 5.37733 169.282 -6.63583 85.7764 -10.7149 -11.0614 -1.59958 69.9557 -4.682 2.73087 24.5149 -0.998652 2.98712 0.143155 7.90799 -90.0851 11.0581 0.245563 -0.192911 -0.612848 0.23683 -0.203535 -23.1481 0.292181 -0.11019 -3.13546 0.292179 -0.110189 89.0587 -31.1251 -108.166 39.8051 -11.4806 -4.315 2.99543 -27.0085 -15.6535 -22.831 -0.348515 -6.54701 -84.4591 -51.006 87.1768 -20.5656 20.8545 -16.8208 0.280631 15.8096 -9.08881 1.11955 -0.128181 -5.60466 0.584619 -2.69186 -1.58996 -4.2412 -2.44586 0.689923 
14.9019 99.7939 16.3242 173.433 -81.0419 172.155 -176.566 -5.19832 90.8792 -11.9203 9.1476 0.405769 71.0065 5.29581 -3.19553 16.7626 -3.15218 5.20804 169.394 -6.49749 85.7481 -11.2477 -13.6155 -1.78201 68.6343 -4.1865 1.79803 26.982 0.0735034 0.0792867 0.159992 7.90735 -90.0913 11.0594 0.27616 -0.208359 -0.611522 0.266726 -0.220312 -23.1469 0.326011 -0.115727 -3.13422 0.326012 -0.115734 89.0362 -31.0915 -108.223 39.8288 -11.2342 -4.15638 2.67908 -27.5218 -15.3814 -23.9674 -0.137376 -7.76487 -84.5526 -51.2189 87.0626 -20.7265 20.1827 -17.1583 0.278837 16.291 -8.23304 1.47169 -0.136914 -5.75125 0.882638 -2.52744 -0.692546 -4.8931 -2.37685 -0.826894 
14.8863 99.7895 16.39 173.231 -81.1501 171.836 -176.651 -5.27625 90.738 -11.6823 9.26061 0.419813 70.9833 5.30463 -2.96467 16.8938 -3.32064 5.4393 169.355 -6.29963 85.6337 -11.4878 -13.1924 -1.80323 69.0328 -4.30753 2.1575 26.6403 -0.00262008 0.308563 0.145262 7.8971 -90.0983 11.0798 0.243567 -0.219221 -0.591097 0.233685 -0.229734 -23.1264 0.298194 -0.135884 -3.11372 0.298195 -0.135887 89.0313 -30.7507 -108.369 40.1408 -11.3245 -4.04976 3.06628 -27.4879 -15.1432 -25.4348 -0.279708 -6.83231 -84.4755 -51.5225 87.2133 -20.4622 20.3324 -17.1836 0.28209 16.0562 -8.48385 1.21856 -0.135837 -5.81545 1.06743 -2.43913 -0.476356 -5.11259 -2.32008 -0.75889 
14.8863 99.7943 16.4634 172.272 -81.1959 170.81 -176.72 -5.29646 90.6603 -11.5908 9.25127 0.460608 70.9933 5.29784 -3.06629 16.8413 -3.36209 5.49356 169.292 -6.39755 85.5909 -11.2601 -13.2977 -1.7832 68.9727 -4.34885 1.61957 26.8635 -0.199831 0.783272 0.124589 7.90352 -90.1116 11.067 0.196314 -0.24094 -0.603995 0.185518 -0.249355 -23.1392 0.259648 -0.170807 -3.12652 0.25965 -0.170807 89.0898 -30.3947 -108.398 40.229 -11.0746 -4.12477 3.0549 -27.7898 -15.1803 -24.4946 -0.164626 -7.58214 -84.3417 -51.9277 87.4583 -20.0022 20.5246 -17.4055 0.253992 16.0525 -8.74291 1.23382 -0.121084 -5.34071 1.18662 -2.38003 -0.144963 -4.84627 -2.30821 -0.914609 
14.8991 99.791 16.4905 173.357 -81.3952 171.855 -176.935 -5.26548 90.4705 -11.4079 8.72615 0.597433 70.9947 5.28259 -3.22291 16.6776 -3.37615 5.50993 169.254 -6.14562 85.5178 -11.3726 -13.4866 -1.76309 68.9484 -4.30686 1.99516 26.826 0.0271433 0.207099 0.138479 7.89243 -90.0993 11.0892 0.229618 -0.219785 -0.581794 0.219725 -0.229689 -23.117 0.285058 -0.14062 -3.10438 0.285059 -0.140615 89.04 -30.6402 -108.396 40.0576 -11.3342 -4.10629 3.07393 -28.26 -15.3308 -24.9439 -0.341241 -6.65685 -84.2931 -51.6779 87.5016 -20.5682 20.0636 -17.3429 0.502603 16.1924 -8.64234 1.19708 -0.130306 -5.64635 1.57654 -2.45799 -0.258701 -5.47087 -2.35595 -1.10877 
14.8439 99.769 16.5421 175.153 -81.4762 173.568 -176.887 -5.31442 90.4456 -11.3389 8.74558 0.485321 70.9863 5.28518 -3.16886 16.7882 -3.62067 5.84241 169.357 -6.1015 85.5215 -11.3162 -13.6819 -1.89739 68.9753 -4.3304 1.94997 27.0511 -0.0696724 0.426216 0.165057 7.90096 -90.0832 11.0722 0.290016 -0.193627 -0.598744 0.281213 -0.206203 -23.1341 0.334792 -0.0975154 -3.12148 0.334799 -0.0975126 88.9737 -30.8764 -108.431 40.085 -10.8142 -4.25916 2.99117 -29.803 -15.0498 -24.8405 -0.291126 -7.167 -84.307 -51.6531 87.4782 -20.3656 20.3439 -17.4323 0.380448 16.3166 -8.63399 1.42665 -0.116223 -5.14244 1.434 -2.49709 -0.683819 -4.89361 -2.35179 -0.480348 
14.6945 99.7817 16.6323 174.995 -81.5099 173.53 -176.672 -5.29109 90.7625 -11.3613 8.93562 0.408355 70.9431 5.28239 -3.20111 17.0409 -3.68622 5.93795 169.438 -6.21473 85.7454 -11.2678 -13.6257 -1.83311 69.0395 -4.40054 1.40483 26.7211 -0.39596 1.29932 0.161284 7.89207 -90.0911 11.09 0.278808 -0.208275 -0.580925 0.269377 -0.220346 -23.1163 0.328509 -0.114858 -3.10363 0.328517 -0.114848 89.0107 -31.078 -108.278 39.931 -11.0816 -4.1418 2.79752 -29.7866 -15.6543 -24.4072 -0.37758 -6.72513 -84.3836 -51.5195 87.3492 -20.6735 20.1166 -17.1487 0.450114 16.2016 -8.53581 1.46442 -0.121389 -5.29208 1.14381 -2.53429 -1.36642 -4.73088 -2.30879 0.328175 
14.506 99.7878 16.6786 174.276 -81.6806 172.86 -176.388 -5.07589 91.09 -11.3851 9.29015 0.192997 70.8832 5.25744 -3.2565 17.2588 -3.69085 5.9486 169.737 -6.12881 86.0677 -11.3008 -13.2905 -1.94855 69.0908 -4.40805 1.30379 26.7623 -0.294004 1.03676 0.156042 7.88574 -90.0966 11.1026 0.265805 -0.218024 -0.568325 0.255954 -0.229512 -23.1036 0.319036 -0.128051 -3.09099 0.319034 -0.128067 88.9538 -31.2724 -108.311 39.7352 -11.3087 -4.04833 2.65985 -29.2012 -15.8853 -24.8123 -0.383922 -6.5783 -84.3907 -51.2674 87.3093 -21.0523 20.0615 -17.1295 0.436892 16.1026 -8.36955 1.43801 -0.130253 -5.56411 1.17962 -2.55964 -1.18468 -4.99935 -2.34731 -0.215516 
14.2672 99.7691 16.9036 172.414 -81.5846 171.159 -176.004 -5.10843 91.58 -11.574 10.1927 0.0627111 71.0107 5.32867 -2.74747 17.5496 -3.33369 5.46519 169.8 -6.52281 86.318 -11.0869 -12.6592 -1.81546 68.9576 -4.26725 2.08461 27.7982 0.142375 -0.231402 0.129977 7.89425 -90.135 11.0856 0.19612 -0.287707 -0.585395 0.183266 -0.296054 -23.1205 0.27352 -0.215463 -3.10787 0.273521 -0.215459 88.9727 -30.9942 -108.385 40.1137 -11.0472 -3.97321 2.75034 -29.2351 -15.4627 -25.1258 -0.36977 -6.64377 -84.3007 -51.7271 87.496 -20.1556 20.6972 -17.1128 0.267707 16.1427 -8.8858 1.53906 -0.116116 -5.11952 1.1023 -2.53744 -1.09018 -4.96415 -2.34798 0.0668185 
14.099 99.7637 16.9931 172.445 -81.7736 171.026 -176.062 -5.10599 91.5151 -11.3342 9.9847 0.0655333 71.0138 5.32639 -3.16699 17.4095 -3.62765 5.86574 169.908 -6.34705 86.3831 -11.2216 -13.0509 -1.92664 69.2207 -4.47261 1.16643 26.5239 -0.183738 0.785937 0.132352 7.86738 -90.1015 11.1393 0.216363 -0.223007 -0.531621 0.206338 -0.232322 -23.0668 0.27338 -0.147674 -3.0542 0.273376 -0.147679 88.779 -31.3559 -108.616 39.8343 -11.1841 -3.79399 2.82172 -28.1284 -15.4167 -25.3711 -0.314141 -6.76475 -84.3227 -51.2131 87.4043 -20.9535 20.316 -16.8752 0.46225 16.4624 -8.69889 1.62065 -0.126077 -5.38314 0.838346 -2.57171 -1.48375 -4.95018 -2.33665 0.434543 
13.824 99.7329 17.1703 171.845 -81.9315 170.466 -175.885 -5.13484 91.8046 -11.139 10.2029 0.015589 71.2674 5.42408 -3.19168 17 -3.64543 5.88092 170.15 -6.35732 86.6818 -11.1951 -12.3273 -1.97038 69.2771 -4.4167 1.85929 26.8278 -0.115935 0.574303 0.139113 7.86028 -90.1107 11.1535 0.225508 -0.24236 -0.517454 0.214618 -0.252057 -23.0527 0.287915 -0.163377 -3.04003 0.287916 -0.163383 88.9932 -31.3882 -108.19 39.9243 -10.8422 -4.09993 3.22322 -30.0451 -14.975 -24.8464 -0.337264 -6.95117 -84.2596 -51.0574 87.4804 -21.1128 20.2471 -16.9905 0.627999 17.0938 -8.76056 1.59089 -0.110729 -4.96333 0.881971 -2.542 -1.65839 -4.66654 -2.28581 0.702456 
13.5007 99.7021 17.3964 172.033 -81.9202 170.618 -175.589 -5.55004 92.1854 -10.5338 10.0949 -0.16846 71.2245 5.39278 -3.63146 17.4967 -3.37647 5.52176 170.233 -6.50859 86.8731 -11.3235 -12.4903 -1.9509 69.8889 -4.77148 0.889691 25.9491 -0.427922 1.45676 0.162067 7.8642 -90.131 11.1457 0.261737 -0.286307 -0.525204 0.248888 -0.297552 -23.0604 0.335685 -0.1944 -3.0478 0.335685 -0.194406 89.0078 -31.2617 -108.211 39.9199 -10.7845 -3.97942 3.30865 -29.941 -15.2015 -25.4568 -0.386893 -6.63119 -84.2875 -51.2289 87.4585 -21.0536 20.1618 -17.0661 0.587066 16.819 -8.70839 2.33777 -0.10513 -4.70908 0.933729 -2.50038 -1.22147 -4.86227 -2.29141 -0.0286855 
